<svg width="100%" height="100%" id="svg" viewBox="0 0 1440 590" xmlns="http://www.w3.org/2000/svg" class="transition duration-300 ease-in-out delay-150"><path d="M 0,600 L 0,150 C 93.02392344497608,108.3444976076555 186.04784688995215,66.688995215311 270,86 C 353.95215311004785,105.311004784689 428.83253588516754,185.5885167464115 526,204 C 623.1674641148325,222.4114832535885 742.6220095693778,178.95693779904306 864,170 C 985.3779904306222,161.04306220095694 1108.6794258373207,186.58373205741628 1205,189 C 1301.3205741626793,191.41626794258372 1370.6602870813397,170.70813397129186 1440,150 L 1440,600 L 0,600 Z" stroke="none" stroke-width="0" fill="#ffbe98" fill-opacity="0.53" class="transition-all duration-300 ease-in-out delay-150 path-0" transform="rotate(-180 720 300)"></path><path d="M 0,600 L 0,350 C 130.08612440191388,309.4162679425838 260.17224880382776,268.8325358851675 339,276 C 417.82775119617224,283.1674641148325 445.3971291866028,338.0861244019139 522,380 C 598.6028708133972,421.9138755980861 724.2392344497608,450.82296650717706 825,424 C 925.7607655502392,397.17703349282294 1001.6459330143541,314.622009569378 1100,293 C 1198.3540669856459,271.377990430622 1319.1770334928228,310.688995215311 1440,350 L 1440,600 L 0,600 Z" stroke="none" stroke-width="0" fill="#ffbe98" fill-opacity="1" class="transition-all duration-300 ease-in-out delay-150 path-1" transform="rotate(-180 720 300)"></path></svg>